PathFileType	4	(X/Y/Z)	\\147.46.242.158\로컬 디스크 (e)\MOCAP Data\Iguana Capture\iguana\Project 2\Capture day 7\Session 2\Take14.trc
DataRate	CameraRate	NumFrames	NumMarkers	Units	OrigDataRate	OrigDataStartFrame	OrigNumFrames
120.0	120.0	17	23	mm	120.0	139	5026
Frame#	Time	ana:head1			ana:head2			ana:bone1			ana:bone2			ana:bone3			ana:tail1			ana:tail2			ana:tail3			ana:tail4			ana:Rforefoot1			ana:Rforefoot2			ana:Rforefoot3			ana:Lforefoot1			ana:Lforefoot2			ana:Lforefoot3			ana:RhindLeg1			ana:RhindLeg2			ana:RhindLeg3			ana:RhindLeg4			ana:LhindLeg1			ana:LhindLeg2			ana:LhindLeg3			ana:LhindLeg4			
		X1	Y1	Z1	X2	Y2	Z2	X3	Y3	Z3	X4	Y4	Z4	X5	Y5	Z5	X6	Y6	Z6	X7	Y7	Z7	X8	Y8	Z8	X9	Y9	Z9	X10	Y10	Z10	X11	Y11	Z11	X12	Y12	Z12	X13	Y13	Z13	X14	Y14	Z14	X15	Y15	Z15	X16	Y16	Z16	X17	Y17	Z17	X18	Y18	Z18	X19	Y19	Z19	X20	Y20	Z20	X21	Y21	Z21	X22	Y22	Z22	X23	Y23	Z23	

2889	24.067	517.85254	186.67577	43.41018	507.19870	186.83528	44.35529	485.20331	185.41908	39.78554	456.33728	182.18852	39.19894	422.69421	180.53236	35.38012	390.73233	184.72168	28.52009	354.27301	188.87866	17.81808	313.85977	193.25720	8.23020	273.06287	201.72696	4.84882	488.80313	174.01759	21.34599	482.50229	161.92299	13.01563	491.37128	170.24777	1.72870	481.47488	196.99289	24.90546	472.73172	204.01154	26.20403	462.12146	198.39165	4.97559	419.66299	171.35464	28.97174	407.55121	156.05443	25.34200	384.09845	152.39029	20.64295	381.67062	148.82339	10.12478	421.20184	190.96562	27.48848	422.52148	206.13968	16.43103	408.14761	205.41508	3.53090	420.33661	207.16385	2.29644	
2890	24.075	519.86688	186.54811	43.51112	509.30502	186.71744	44.57835	487.25537	185.64879	39.89338	458.31213	183.12909	39.28146	424.79941	181.25078	35.35233	392.61331	184.49446	28.45184	356.15530	188.37526	17.74410	315.76257	192.80075	8.14095	274.93463	201.27785	4.84592	490.14502	173.88962	21.46770	482.75751	162.13670	13.24227	491.48160	170.22115	1.93536	485.16455	196.77214	25.09436	476.61578	204.82196	27.00932	468.09973	205.10960	7.70869	422.13345	171.96964	29.00288	410.78485	156.01176	25.79373	387.24817	152.69064	20.99618	384.39020	149.02477	10.60058	422.73663	191.51233	27.34246	422.72861	206.97318	16.14312	408.30078	205.00859	3.31192	420.29916	207.26552	2.26509	
2891	24.083	521.82117	186.35204	43.55865	511.31348	186.51968	44.75568	489.23666	185.79451	39.94146	460.22720	183.96892	39.29588	426.80450	181.91284	35.24310	394.47601	184.17836	28.28884	358.03049	187.76190	17.57011	317.64828	192.27457	8.01693	276.79840	200.84090	4.85136	491.41312	173.75122	21.54782	483.10013	162.29674	13.47844	491.69925	170.26338	2.14036	488.44308	196.77597	25.66833	480.54379	205.63670	27.81809	474.68991	210.71344	9.88381	424.50848	172.62407	28.93902	414.37387	155.85822	26.24547	390.79507	153.08611	21.15800	387.78854	149.02135	11.10965	424.21027	192.03227	27.16677	422.96164	207.65378	15.92532	408.58243	204.25587	2.97302	420.28436	207.33350	2.24359	
2892	24.092	523.69189	186.09187	43.57704	513.27734	186.25591	44.86412	491.16434	185.89301	39.97175	462.08087	184.70634	39.24292	428.68323	182.50687	35.05479	396.32202	183.74431	28.03374	359.89600	187.04964	17.30057	319.51605	191.69502	7.86821	278.66949	200.39069	4.87007	492.61020	173.61159	21.61179	483.47000	162.41328	13.69836	491.88040	170.36575	2.23232	491.40833	196.75119	26.03420	484.49606	206.35188	28.50265	481.88437	214.74110	11.83142	426.79858	173.16110	28.76874	418.33517	155.65004	26.65123	394.82086	153.53033	21.02969	391.97272	148.77855	11.50830	425.66470	192.49139	26.98041	423.23300	208.08365	15.75504	408.92725	203.62971	2.81397	420.30411	207.36559	2.25146	
2893	24.100	525.50598	185.76357	43.61978	515.16095	185.92938	44.93998	492.99396	185.92174	40.00409	463.86191	185.32939	39.11889	430.48868	182.99069	34.80198	398.13931	183.19023	27.69329	361.76950	186.22923	16.93938	321.38275	191.06065	7.68827	280.54358	199.92950	4.88268	493.75662	173.48929	21.66956	483.89087	162.49364	13.93231	492.05670	170.54198	2.25245	494.23386	196.59978	26.34057	488.36005	206.88631	29.01415	489.34415	217.07773	13.59580	429.04004	173.61691	28.50316	422.65167	155.44548	26.94563	399.37033	153.91951	20.55728	397.09161	148.28732	11.80848	427.08136	192.85190	26.77562	423.57263	208.19507	15.57111	409.21179	203.04700	2.81913	420.35217	207.37688	2.26538	
2894	24.108	527.26495	185.38475	43.71069	516.91675	185.55551	44.98649	494.73022	185.86794	40.03588	465.57736	185.83946	38.94254	432.24496	183.35664	34.48393	399.95447	182.52258	27.23601	363.64758	185.31685	16.49449	323.24188	190.38712	7.49012	282.43024	199.46556	4.90777	494.84903	173.33058	21.71133	484.36853	162.57300	14.17021	492.29285	170.71857	2.35345	496.94220	196.34827	26.59226	492.11530	207.25653	29.20762	496.62875	217.51230	14.74785	431.22803	173.96025	28.15040	427.25986	155.34143	27.14340	404.49139	154.19252	19.75830	403.11362	147.62473	11.95704	428.47327	193.10028	26.54314	423.98663	208.14566	15.44234	409.41608	202.66049	3.00691	420.41708	207.34743	2.28429	
2895	24.117	528.96887	184.96878	43.85710	518.57916	185.13420	45.03013	496.39328	185.69482	40.04639	467.24258	186.21275	38.74939	433.96219	183.60480	34.11009	401.75613	181.74954	26.66923	365.53479	184.31763	15.97889	325.12054	189.69176	7.28146	284.32489	199.01227	4.93821	495.91809	173.15697	21.75061	484.88071	162.69348	14.40970	492.59540	170.79282	2.61206	499.46124	196.02092	26.71131	495.73410	207.42780	29.04413	503.64932	216.95854	15.69353	433.43423	174.16887	27.79923	432.09338	155.43066	27.23363	410.08890	154.22093	18.71157	410.08295	146.86066	12.03264	429.87598	193.22089	26.27210	424.44244	207.94836	15.38277	409.56500	202.45119	3.33398	420.33176	207.41634	2.35110	
2896	24.125	530.62872	184.51768	44.05105	520.16498	184.64838	45.10169	497.92590	185.40576	40.05020	468.86868	186.47392	38.57029	435.69458	183.72949	33.70279	403.53006	180.94345	26.03663	367.44116	183.25426	15.39808	327.02493	189.00072	7.06441	286.24762	198.56868	4.94070	496.97476	172.95268	21.78901	485.42297	162.80951	14.63350	492.98376	170.72287	3.04983	501.89270	195.63397	26.77348	499.31693	207.42253	28.62583	510.16809	215.57594	16.36537	435.63162	174.30453	27.40544	437.06067	155.80478	27.24689	416.10519	153.88602	17.60399	417.87204	146.10143	12.08887	431.29395	193.14691	25.95268	424.94266	207.66399	15.37668	409.75140	202.29617	3.70645	420.24249	207.50607	2.38739	
2897	24.133	532.25726	184.04095	44.24304	521.69305	184.11931	45.20678	499.40912	185.00021	40.00241	470.48984	186.61882	38.45110	437.42435	183.76324	33.29906	405.33026	180.08009	25.37957	369.35828	182.14082	14.78994	328.95639	188.30359	6.83885	288.19028	198.13870	4.97259	498.04468	172.67949	21.81466	485.99246	162.98903	14.88545	493.40649	170.45036	3.67341	504.35468	195.20070	26.89371	502.92621	207.25760	27.94450	516.08722	213.65276	16.79602	437.86002	174.34131	27.05265	442.06177	156.47089	27.23085	422.49695	153.21367	16.47149	426.26526	145.53200	12.08005	432.73727	192.95006	25.60553	425.48318	207.30368	15.44262	409.99817	202.13945	4.13714	420.10330	207.62561	2.44338	
2898	24.142	533.83929	183.52710	44.42490	523.28784	183.56323	45.35960	500.88055	184.52948	39.94561	472.08844	186.66237	38.33144	439.15176	183.71094	32.87420	407.12204	179.18460	24.74851	371.28937	181.01234	14.20056	330.91165	187.58893	6.63368	290.15857	197.70329	4.99338	499.12921	172.32677	21.84644	486.60748	163.14684	15.14261	493.76422	169.92159	4.36926	506.85132	194.74069	27.03849	506.62152	206.90999	27.11659	521.37714	211.49655	16.95920	440.08414	174.30823	26.73500	446.96866	157.38139	27.18451	429.10782	152.23506	15.35756	434.99597	145.29646	11.99300	434.21295	192.72806	25.28660	426.08273	206.87262	15.58177	410.30975	201.96973	4.61986	419.96628	207.76103	2.51292	
2899	24.150	535.42236	182.96165	44.55691	524.88599	182.97066	45.53389	502.36963	184.00641	39.83905	473.71289	186.60945	38.24279	440.89261	183.59151	32.50329	408.97409	178.28134	24.21085	373.23074	179.89879	13.69004	332.87531	186.86389	6.47415	292.16998	197.29582	4.98650	500.26233	171.97925	21.84192	487.27380	163.29955	15.38969	494.00253	169.23766	5.07894	509.33945	194.25838	27.14191	510.39990	206.34848	26.20928	526.07550	209.36809	16.80646	442.26526	174.28867	26.43112	451.65488	158.46066	27.07981	435.97888	151.07701	14.31791	443.83768	145.42526	11.86000	435.73630	192.42697	25.01954	426.74503	206.38954	15.77202	410.67743	201.56856	5.04052	419.92709	207.80104	2.62439	
2900	24.158	537.02142	182.35735	44.64819	526.52814	182.34384	45.66808	503.95737	183.48396	39.76782	475.36197	186.48573	38.19995	442.64685	183.42825	32.20290	410.89587	177.40927	23.84193	375.18637	178.81506	13.27197	334.84525	186.13196	6.37165	294.21231	196.91864	4.96200	501.47162	171.64491	21.80675	488.08749	163.36151	15.68734	494.01654	168.37985	5.69712	511.75461	193.73622	27.12312	514.16888	205.56729	25.24683	530.30908	207.43605	16.37807	444.42334	174.17665	26.20592	456.02371	159.57729	26.92648	443.04068	149.94919	13.29873	452.42603	146.03394	11.53545	437.32135	192.05479	24.83673	427.52960	205.80156	16.01974	411.09399	201.33832	5.69299	419.92664	207.78815	2.86272	
2901	24.167	538.67145	181.69789	44.69445	528.24060	181.69907	45.77779	505.63742	182.96893	39.73145	477.06210	186.30132	38.20794	444.39340	183.18874	32.01638	412.88376	176.56088	23.61948	377.15341	177.79012	12.98632	336.83530	185.39529	6.31017	296.29742	196.56548	4.90251	502.80069	171.33621	21.70720	489.04181	163.33945	16.04663	493.86124	167.37364	6.20749	514.10608	193.20645	26.98308	517.79779	204.56694	24.20610	534.05414	205.70531	15.46669	446.55615	174.02014	26.04798	459.98755	160.57994	26.66269	450.09012	149.06656	12.20029	460.53671	147.06514	11.00702	438.94247	191.64674	24.74317	428.42990	205.13234	16.31583	411.62085	201.11775	6.44972	420.08170	207.71687	3.18331	
2902	24.175	540.40106	181.02448	44.68974	529.93652	181.04752	45.78614	507.44275	182.45251	39.74157	478.82700	186.08183	38.23984	446.20474	182.89476	31.94679	414.93018	175.78568	23.52930	379.13898	176.83051	12.81645	338.83673	184.66150	6.27990	298.39484	196.23741	4.84743	504.23270	171.03915	21.56425	490.15146	163.27103	16.44141	493.68454	166.19435	6.78447	516.36835	192.65195	26.66280	521.22375	203.39664	23.05954	537.35272	204.07430	14.02741	448.69946	173.80750	25.99560	463.52505	161.37012	26.30012	456.86508	148.60040	10.96752	467.80029	148.39388	10.19917	440.62704	191.20804	24.76190	429.49225	204.40831	16.72404	412.29593	200.87947	7.25141	420.41339	207.53093	3.54518	
2903	24.183	542.21185	180.37836	44.62978	531.66638	180.39861	45.71849	509.36584	181.94673	39.75670	480.66861	185.79675	38.29351	448.04086	182.53661	31.97935	416.99408	175.08214	23.54123	381.14938	175.94264	12.76651	340.85492	183.91048	6.28075	300.50955	195.89627	4.80784	505.75656	170.73128	21.41756	491.40173	163.14984	16.76166	493.63031	164.88651	7.46868	518.56903	192.08189	26.20930	524.34497	202.11098	21.75421	540.22778	202.44749	12.09176	450.85107	173.53529	25.98096	466.66409	162.03996	25.68667	462.98645	148.62573	9.54386	474.04660	149.78230	9.09002	442.36499	190.82347	24.88783	430.70822	203.64243	17.22831	413.11093	200.58282	8.09403	420.75528	207.40465	3.98610	
2904	24.192	544.11353	179.76752	44.51387	533.50220	179.78282	45.58687	511.38235	181.46339	39.77565	482.60229	185.47650	38.34940	449.95731	182.12151	32.08371	419.03595	174.44118	23.65597	383.18845	175.11624	12.79352	342.90112	183.16713	6.28534	302.65060	195.51952	4.78200	507.35034	170.38304	21.30441	492.81082	162.97615	17.05041	493.78790	163.48920	8.27557	520.61304	191.52829	25.53556	527.14569	200.89532	20.36879	542.66113	200.93935	9.87068	452.93887	173.29245	25.95930	469.44031	162.52567	24.84167	467.98755	148.97858	8.00725	479.01813	150.98839	7.72336	444.19827	190.38803	25.08842	432.05273	202.83818	17.79923	414.05780	200.22136	8.95510	421.23297	207.24464	4.39711	
2905	24.200	546.10016	179.21378	44.34706	535.43945	179.22932	45.40418	513.44299	180.99632	39.71403	484.63391	185.07845	38.41048	451.96524	181.68805	32.26004	421.10080	173.82048	23.80421	385.26367	174.35060	12.87434	344.98502	182.43686	6.29978	304.81818	195.10286	4.76714	509.02176	169.99667	21.21021	494.38034	162.77032	17.24496	494.18167	162.05048	9.18304	522.56903	191.04848	24.81080	529.54950	199.92647	19.04893	544.58356	199.68822	7.62884	455.06415	172.93037	25.94080	471.86493	162.66820	23.84196	471.68979	149.52832	6.41482	482.61786	151.85220	6.24697	446.12360	189.90160	25.31080	433.53622	202.11189	18.41315	415.09967	199.89098	9.88038	421.80826	207.10995	4.83218	
